<mxfile host="65bd71144e" pages="4">
    <diagram id="Muz1-bQjH9iksN1sG5v9" name="TMDB">
        <mxGraphModel dx="681" dy="912" grid="1" gridSize="10" guides="1" tooltips="1" connect="1" arrows="1" fold="1" page="0" pageScale="1" pageWidth="827" pageHeight="583" math="0" shadow="0">
            <root>
                <mxCell id="0"/>
                <mxCell id="1" parent="0"/>
                <mxCell id="rEoPmC6pdn0FvkLnykBC-2" value="&lt;p style=&quot;margin:0px;margin-top:4px;text-align:center;&quot;&gt;&lt;b&gt;MediaRepository&lt;/b&gt;&lt;/p&gt;&lt;hr size=&quot;1&quot;&gt;&lt;p style=&quot;margin:0px;margin-left:4px;&quot;&gt;&lt;span style=&quot;background-color: initial;&quot;&gt;+ findByNameContaining(String nameFragment): List&amp;lt;Media&amp;gt;&lt;/span&gt;&lt;br&gt;&lt;/p&gt;&lt;p style=&quot;margin:0px;margin-left:4px;&quot;&gt;+ findById(Long id): Optional&amp;lt;Media&amp;gt;&lt;/p&gt;" style="verticalAlign=top;align=left;overflow=fill;fontSize=12;fontFamily=Helvetica;html=1;" parent="1" vertex="1">
                    <mxGeometry x="680" y="80" width="340" height="70" as="geometry"/>
                </mxCell>
                <mxCell id="rEoPmC6pdn0FvkLnykBC-4" value="&lt;p style=&quot;margin:0px;margin-top:4px;text-align:center;&quot;&gt;&lt;i&gt;&amp;lt;&amp;lt;abstract&amp;gt;&amp;gt;&lt;/i&gt;&lt;br&gt;&lt;b&gt;TMDBApi&amp;lt;T extends TMDBResponse&amp;lt;U&amp;gt;, U&amp;gt;&lt;/b&gt;&lt;/p&gt;&lt;hr size=&quot;1&quot;&gt;&lt;p style=&quot;margin:0px;margin-left:4px;&quot;&gt;- entityEndpoint: String&lt;/p&gt;&lt;p style=&quot;margin:0px;margin-left:4px;&quot;&gt;- httpEntity: HttpEntity&amp;lt;String&amp;gt;&lt;/p&gt;&lt;p style=&quot;margin:0px;margin-left:4px;&quot;&gt;- restTemplate: RestTemplate&lt;/p&gt;&lt;p style=&quot;margin:0px;margin-left:4px;&quot;&gt;- tmdbResponseClass: Class&amp;lt;T&amp;gt;&lt;/p&gt;&lt;p style=&quot;margin:0px;margin-left:4px;&quot;&gt;- tmdbResponseEntityClass: Class&amp;lt;U&amp;gt;&lt;/p&gt;&lt;hr size=&quot;1&quot;&gt;&lt;p style=&quot;margin:0px;margin-left:4px;&quot;&gt;+ search(searchTerm: String): T&lt;/p&gt;&lt;p style=&quot;margin:0px;margin-left:4px;&quot;&gt;+ findById(id: long): Optional&amp;lt;U&amp;gt;&lt;/p&gt;&lt;p style=&quot;margin:0px;margin-left:4px;&quot;&gt;# getHttpEntity(): HttpEntity&amp;lt;String&amp;gt;&lt;/p&gt;&lt;p style=&quot;margin:0px;margin-left:4px;&quot;&gt;# getRestTemplate(): RestTemplate&lt;/p&gt;&lt;p style=&quot;margin:0px;margin-left:4px;&quot;&gt;# getTmdbConfig(): TMDBConfig&lt;/p&gt;&lt;p style=&quot;margin:0px;margin-left:4px;&quot;&gt;# getEntityEndpoint(): String&lt;/p&gt;" style="verticalAlign=top;align=left;overflow=fill;fontSize=12;fontFamily=Helvetica;html=1;" parent="1" vertex="1">
                    <mxGeometry x="300" y="300" width="290" height="220" as="geometry"/>
                </mxCell>
                <mxCell id="rEoPmC6pdn0FvkLnykBC-5" value="&lt;p style=&quot;margin:0px;margin-top:4px;text-align:center;&quot;&gt;&lt;i&gt;&amp;lt;&amp;lt;Configuration&amp;gt;&amp;gt;&lt;/i&gt;&lt;/p&gt;&lt;p style=&quot;margin:0px;margin-top:4px;text-align:center;&quot;&gt;&lt;b&gt;TMDBConfig&lt;/b&gt;&lt;/p&gt;&lt;hr size=&quot;1&quot;&gt;&lt;p style=&quot;margin:0px;margin-left:4px;&quot;&gt;- url: String&lt;/p&gt;&lt;p style=&quot;margin:0px;margin-left:4px;&quot;&gt;- apiToken: String&lt;/p&gt;&lt;hr size=&quot;1&quot;&gt;&lt;p style=&quot;margin:0px;margin-left:4px;&quot;&gt;+ getUrl(): String&lt;/p&gt;&lt;p style=&quot;margin:0px;margin-left:4px;&quot;&gt;+ setUrl(url: String)&lt;/p&gt;&lt;p style=&quot;margin:0px;margin-left:4px;&quot;&gt;+ getApiToken(): String&lt;/p&gt;&lt;p style=&quot;margin:0px;margin-left:4px;&quot;&gt;+ setApiToken(token: String)&lt;/p&gt;" style="verticalAlign=top;align=left;overflow=fill;fontSize=12;fontFamily=Helvetica;html=1;" parent="1" vertex="1">
                    <mxGeometry x="30" y="332.5" width="160" height="155" as="geometry"/>
                </mxCell>
                <mxCell id="rEoPmC6pdn0FvkLnykBC-6" value="" style="endArrow=open;html=1;endSize=12;startArrow=diamondThin;startSize=14;startFill=0;edgeStyle=orthogonalEdgeStyle;align=left;verticalAlign=bottom;rounded=0;" parent="1" source="rEoPmC6pdn0FvkLnykBC-4" target="rEoPmC6pdn0FvkLnykBC-5" edge="1">
                    <mxGeometry x="-1" y="3" relative="1" as="geometry">
                        <mxPoint x="120" y="330" as="sourcePoint"/>
                        <mxPoint x="470" y="370" as="targetPoint"/>
                    </mxGeometry>
                </mxCell>
                <mxCell id="rEoPmC6pdn0FvkLnykBC-7" value="- tmdbConfig" style="edgeLabel;html=1;align=center;verticalAlign=middle;resizable=0;points=[];" parent="rEoPmC6pdn0FvkLnykBC-6" vertex="1" connectable="0">
                    <mxGeometry x="-0.8836" relative="1" as="geometry">
                        <mxPoint x="-32" y="-15" as="offset"/>
                    </mxGeometry>
                </mxCell>
                <mxCell id="rEoPmC6pdn0FvkLnykBC-8" value="&lt;p style=&quot;margin:0px;margin-top:4px;text-align:center;&quot;&gt;&lt;b style=&quot;background-color: initial;&quot;&gt;TMDBApiFactory&lt;/b&gt;&lt;br&gt;&lt;/p&gt;&lt;hr size=&quot;1&quot;&gt;&lt;p style=&quot;margin:0px;margin-left:4px;&quot;&gt;- restTemplateBuilder: RestTemplateBuilder&lt;/p&gt;&lt;p style=&quot;margin:0px;margin-left:4px;&quot;&gt;- config: TMDBConfig&lt;/p&gt;&lt;hr size=&quot;1&quot;&gt;&lt;p style=&quot;margin:0px;margin-left:4px;&quot;&gt;+ createForMovies(): TMDBMovieApi&lt;/p&gt;&lt;p style=&quot;margin:0px;margin-left:4px;&quot;&gt;+ createForSeries(): TDMBApi&amp;lt;TMDBSeriesResponse, TMDBSeries&amp;gt;&lt;/p&gt;&lt;p style=&quot;margin:0px;margin-left:4px;&quot;&gt;+ createForActors(): TMDBActorApi&lt;/p&gt;" style="verticalAlign=top;align=left;overflow=fill;fontSize=12;fontFamily=Helvetica;html=1;" parent="1" vertex="1">
                    <mxGeometry x="350" y="-160" width="380" height="120" as="geometry"/>
                </mxCell>
                <mxCell id="rEoPmC6pdn0FvkLnykBC-9" value="&lt;p style=&quot;margin:0px;margin-top:4px;text-align:center;&quot;&gt;&lt;b&gt;TMDBActorApi&lt;/b&gt;&lt;/p&gt;&lt;hr size=&quot;1&quot;&gt;&lt;p style=&quot;margin:0px;margin-left:4px;&quot;&gt;+ getMovieCredits(actorId: long): List&amp;lt;TMDBMovieCredit&amp;gt;&lt;/p&gt;" style="verticalAlign=top;align=left;overflow=fill;fontSize=12;fontFamily=Helvetica;html=1;" parent="1" vertex="1">
                    <mxGeometry x="10" y="70" width="320" height="60" as="geometry"/>
                </mxCell>
                <mxCell id="rEoPmC6pdn0FvkLnykBC-10" value="&amp;lt;&amp;lt;extends&amp;gt;&amp;gt;&lt;br&gt;&lt;span style=&quot;&quot;&gt;T = TMDBActorResponse,&lt;/span&gt;&lt;br style=&quot;&quot;&gt;&lt;span style=&quot;&quot;&gt;U = TMDBActor&lt;/span&gt;" style="endArrow=block;endSize=16;endFill=0;html=1;rounded=0;" parent="1" source="rEoPmC6pdn0FvkLnykBC-9" target="rEoPmC6pdn0FvkLnykBC-4" edge="1">
                    <mxGeometry width="160" relative="1" as="geometry">
                        <mxPoint x="570" y="190" as="sourcePoint"/>
                        <mxPoint x="730" y="190" as="targetPoint"/>
                    </mxGeometry>
                </mxCell>
                <mxCell id="rEoPmC6pdn0FvkLnykBC-13" value="&lt;p style=&quot;margin:0px;margin-top:4px;text-align:center;&quot;&gt;&lt;b&gt;TMDBMovieApi&lt;/b&gt;&lt;/p&gt;&lt;hr size=&quot;1&quot;&gt;&lt;p style=&quot;margin:0px;margin-left:4px;&quot;&gt;+ getUpcoming(): List&amp;lt;TMDBMovie&amp;gt;&lt;/p&gt;" style="verticalAlign=top;align=left;overflow=fill;fontSize=12;fontFamily=Helvetica;html=1;" parent="1" vertex="1">
                    <mxGeometry x="350" y="70" width="205" height="50" as="geometry"/>
                </mxCell>
                <mxCell id="rEoPmC6pdn0FvkLnykBC-17" value="&amp;lt;&amp;lt;extends&amp;gt;&amp;gt;&lt;br&gt;&lt;span style=&quot;&quot;&gt;T = TMDBMovieResponse,&lt;/span&gt;&lt;br style=&quot;&quot;&gt;&lt;span style=&quot;&quot;&gt;U = TMDBMovie&lt;/span&gt;" style="endArrow=block;endSize=16;endFill=0;html=1;rounded=0;" parent="1" source="rEoPmC6pdn0FvkLnykBC-13" target="rEoPmC6pdn0FvkLnykBC-4" edge="1">
                    <mxGeometry width="160" relative="1" as="geometry">
                        <mxPoint x="255.84745762711873" y="170" as="sourcePoint"/>
                        <mxPoint x="367.37288135593235" y="309.9999999999998" as="targetPoint"/>
                    </mxGeometry>
                </mxCell>
                <mxCell id="rEoPmC6pdn0FvkLnykBC-19" value="&amp;lt;&amp;lt;create&amp;gt;&amp;gt;" style="endArrow=open;endSize=12;dashed=1;html=1;rounded=0;" parent="1" source="rEoPmC6pdn0FvkLnykBC-8" target="rEoPmC6pdn0FvkLnykBC-9" edge="1">
                    <mxGeometry width="160" relative="1" as="geometry">
                        <mxPoint x="410" y="90" as="sourcePoint"/>
                        <mxPoint x="570" y="90" as="targetPoint"/>
                    </mxGeometry>
                </mxCell>
                <mxCell id="rEoPmC6pdn0FvkLnykBC-20" value="&amp;lt;&amp;lt;create&amp;gt;&amp;gt;" style="endArrow=open;endSize=12;dashed=1;html=1;rounded=0;" parent="1" source="rEoPmC6pdn0FvkLnykBC-8" target="rEoPmC6pdn0FvkLnykBC-13" edge="1">
                    <mxGeometry width="160" relative="1" as="geometry">
                        <mxPoint x="457.90697674418607" y="-30" as="sourcePoint"/>
                        <mxPoint x="289.06976744186045" y="80" as="targetPoint"/>
                    </mxGeometry>
                </mxCell>
                <mxCell id="rEoPmC6pdn0FvkLnykBC-21" value="&amp;lt;&amp;lt;create&amp;gt;&amp;gt;" style="endArrow=open;endSize=12;dashed=1;html=1;rounded=0;entryX=0.942;entryY=-0.012;entryDx=0;entryDy=0;entryPerimeter=0;exitX=0.718;exitY=1.033;exitDx=0;exitDy=0;exitPerimeter=0;" parent="1" source="rEoPmC6pdn0FvkLnykBC-8" target="rEoPmC6pdn0FvkLnykBC-4" edge="1">
                    <mxGeometry width="160" relative="1" as="geometry">
                        <mxPoint x="467.90697674418607" y="-20" as="sourcePoint"/>
                        <mxPoint x="299.06976744186045" y="90" as="targetPoint"/>
                    </mxGeometry>
                </mxCell>
                <mxCell id="rEoPmC6pdn0FvkLnykBC-22" value="&amp;lt;&amp;lt;use&amp;gt;&amp;gt;" style="endArrow=open;endSize=12;dashed=1;html=1;rounded=0;entryX=0.875;entryY=1.004;entryDx=0;entryDy=0;entryPerimeter=0;" parent="1" source="rEoPmC6pdn0FvkLnykBC-2" target="rEoPmC6pdn0FvkLnykBC-8" edge="1">
                    <mxGeometry width="160" relative="1" as="geometry">
                        <mxPoint x="611.1800000000001" y="-30.480000000000018" as="sourcePoint"/>
                        <mxPoint x="559.98" y="309.9999999999998" as="targetPoint"/>
                    </mxGeometry>
                </mxCell>
                <mxCell id="rEoPmC6pdn0FvkLnykBC-23" value="&lt;p style=&quot;margin:0px;margin-top:4px;text-align:center;&quot;&gt;&lt;b&gt;TMDBMovieCredit&lt;/b&gt;&lt;/p&gt;&lt;hr size=&quot;1&quot;&gt;&lt;p style=&quot;margin:0px;margin-left:4px;&quot;&gt;+ id: long&lt;/p&gt;&lt;p style=&quot;margin:0px;margin-left:4px;&quot;&gt;+ character: String&lt;/p&gt;&lt;p style=&quot;margin:0px;margin-left:4px;&quot;&gt;+ title: String&lt;/p&gt;" style="verticalAlign=top;align=left;overflow=fill;fontSize=12;fontFamily=Helvetica;html=1;" parent="1" vertex="1">
                    <mxGeometry x="-250" y="60" width="160" height="80" as="geometry"/>
                </mxCell>
                <mxCell id="rEoPmC6pdn0FvkLnykBC-24" value="&amp;lt;&amp;lt;create&amp;gt;&amp;gt;" style="endArrow=open;endSize=12;dashed=1;html=1;rounded=0;" parent="1" source="rEoPmC6pdn0FvkLnykBC-9" target="rEoPmC6pdn0FvkLnykBC-23" edge="1">
                    <mxGeometry width="160" relative="1" as="geometry">
                        <mxPoint x="439" y="-30" as="sourcePoint"/>
                        <mxPoint x="235.5" y="80" as="targetPoint"/>
                    </mxGeometry>
                </mxCell>
                <mxCell id="rEoPmC6pdn0FvkLnykBC-25" value="&lt;p style=&quot;margin:0px;margin-top:4px;text-align:center;&quot;&gt;&lt;b&gt;TMDBMovieCreditResponse&lt;/b&gt;&lt;/p&gt;&lt;p style=&quot;margin:0px;margin-left:4px;&quot;&gt;&lt;br&gt;&lt;/p&gt;" style="verticalAlign=top;align=left;overflow=fill;fontSize=12;fontFamily=Helvetica;html=1;" parent="1" vertex="1">
                    <mxGeometry x="-260" y="210" width="180" height="20" as="geometry"/>
                </mxCell>
                <mxCell id="rEoPmC6pdn0FvkLnykBC-28" value="&amp;lt;&amp;lt;create&amp;gt;&amp;gt;" style="endArrow=open;endSize=12;dashed=1;html=1;rounded=0;" parent="1" source="rEoPmC6pdn0FvkLnykBC-9" target="rEoPmC6pdn0FvkLnykBC-25" edge="1">
                    <mxGeometry width="160" relative="1" as="geometry">
                        <mxPoint x="20" y="110" as="sourcePoint"/>
                        <mxPoint x="-79.99999999999977" y="110" as="targetPoint"/>
                    </mxGeometry>
                </mxCell>
                <mxCell id="rEoPmC6pdn0FvkLnykBC-29" value="+ cast" style="endArrow=diamondThin;endFill=0;endSize=24;html=1;rounded=0;startArrow=open;startFill=0;" parent="1" source="rEoPmC6pdn0FvkLnykBC-23" target="rEoPmC6pdn0FvkLnykBC-25" edge="1">
                    <mxGeometry x="0.7143" y="-30" width="160" relative="1" as="geometry">
                        <mxPoint x="120" y="250" as="sourcePoint"/>
                        <mxPoint x="280" y="250" as="targetPoint"/>
                        <mxPoint as="offset"/>
                    </mxGeometry>
                </mxCell>
                <mxCell id="rEoPmC6pdn0FvkLnykBC-30" value="1" style="edgeLabel;html=1;align=center;verticalAlign=middle;resizable=0;points=[];" parent="rEoPmC6pdn0FvkLnykBC-29" vertex="1" connectable="0">
                    <mxGeometry x="0.6206" y="3" relative="1" as="geometry">
                        <mxPoint x="7" y="-47" as="offset"/>
                    </mxGeometry>
                </mxCell>
                <mxCell id="rEoPmC6pdn0FvkLnykBC-31" value="&lt;p style=&quot;margin:0px;margin-top:4px;text-align:center;&quot;&gt;&lt;i&gt;&amp;lt;&amp;lt;abstract&amp;gt;&amp;gt;&lt;/i&gt;&lt;/p&gt;&lt;p style=&quot;margin:0px;margin-top:4px;text-align:center;&quot;&gt;&lt;b&gt;TMDBResponse&amp;lt;T&amp;gt;&lt;/b&gt;&lt;/p&gt;&lt;hr size=&quot;1&quot;&gt;&lt;p style=&quot;margin:0px;margin-left:4px;&quot;&gt;+ page: int&lt;/p&gt;&lt;p style=&quot;margin:0px;margin-left:4px;&quot;&gt;+ total_pages: int&lt;/p&gt;&lt;p style=&quot;margin:0px;margin-left:4px;&quot;&gt;+ results: T[]&lt;/p&gt;" style="verticalAlign=top;align=left;overflow=fill;fontSize=12;fontFamily=Helvetica;html=1;" parent="1" vertex="1">
                    <mxGeometry x="350" y="670" width="160" height="100" as="geometry"/>
                </mxCell>
                <mxCell id="rEoPmC6pdn0FvkLnykBC-32" value="&lt;p style=&quot;margin:0px;margin-top:4px;text-align:center;&quot;&gt;&lt;b&gt;TMDBMovieResponse&lt;/b&gt;&lt;/p&gt;&lt;p style=&quot;margin:0px;margin-left:4px;&quot;&gt;&lt;br&gt;&lt;/p&gt;" style="verticalAlign=top;align=left;overflow=fill;fontSize=12;fontFamily=Helvetica;html=1;" parent="1" vertex="1">
                    <mxGeometry x="730" y="580" width="160" height="20" as="geometry"/>
                </mxCell>
                <mxCell id="rEoPmC6pdn0FvkLnykBC-34" value="&amp;lt;&amp;lt;extends&amp;gt;&amp;gt;&lt;br&gt;T = TMDBMovie" style="endArrow=block;endSize=16;endFill=0;html=1;rounded=0;" parent="1" source="rEoPmC6pdn0FvkLnykBC-32" target="rEoPmC6pdn0FvkLnykBC-31" edge="1">
                    <mxGeometry width="160" relative="1" as="geometry">
                        <mxPoint x="455" y="170" as="sourcePoint"/>
                        <mxPoint x="455" y="310" as="targetPoint"/>
                    </mxGeometry>
                </mxCell>
                <mxCell id="rEoPmC6pdn0FvkLnykBC-36" value="&lt;p style=&quot;margin:0px;margin-top:4px;text-align:center;&quot;&gt;&lt;b&gt;TMDBSeriesResponse&lt;/b&gt;&lt;/p&gt;&lt;p style=&quot;margin:0px;margin-left:4px;&quot;&gt;&lt;br&gt;&lt;/p&gt;" style="verticalAlign=top;align=left;overflow=fill;fontSize=12;fontFamily=Helvetica;html=1;" parent="1" vertex="1">
                    <mxGeometry x="300" y="580" width="160" height="20" as="geometry"/>
                </mxCell>
                <mxCell id="rEoPmC6pdn0FvkLnykBC-38" value="&lt;p style=&quot;margin:0px;margin-top:4px;text-align:center;&quot;&gt;&lt;b&gt;TMDBActorResponse&lt;/b&gt;&lt;/p&gt;&lt;p style=&quot;margin:0px;margin-left:4px;&quot;&gt;&lt;br&gt;&lt;/p&gt;" style="verticalAlign=top;align=left;overflow=fill;fontSize=12;fontFamily=Helvetica;html=1;" parent="1" vertex="1">
                    <mxGeometry x="70" y="580" width="160" height="20" as="geometry"/>
                </mxCell>
                <mxCell id="rEoPmC6pdn0FvkLnykBC-40" value="&amp;lt;&amp;lt;extends&amp;gt;&amp;gt;&lt;br&gt;T = TMDBSeries" style="endArrow=block;endSize=16;endFill=0;html=1;rounded=0;" parent="1" source="rEoPmC6pdn0FvkLnykBC-36" target="rEoPmC6pdn0FvkLnykBC-31" edge="1">
                    <mxGeometry width="160" relative="1" as="geometry">
                        <mxPoint x="827.8947368421054" y="120" as="sourcePoint"/>
                        <mxPoint x="1070" y="183.8888888888889" as="targetPoint"/>
                    </mxGeometry>
                </mxCell>
                <mxCell id="rEoPmC6pdn0FvkLnykBC-41" value="&amp;lt;&amp;lt;extends&amp;gt;&amp;gt;&lt;br&gt;T = TMDBActor" style="endArrow=block;endSize=16;endFill=0;html=1;rounded=0;" parent="1" source="rEoPmC6pdn0FvkLnykBC-38" target="rEoPmC6pdn0FvkLnykBC-31" edge="1">
                    <mxGeometry width="160" relative="1" as="geometry">
                        <mxPoint x="837.8947368421054" y="130" as="sourcePoint"/>
                        <mxPoint x="1080" y="193.8888888888889" as="targetPoint"/>
                    </mxGeometry>
                </mxCell>
                <mxCell id="rEoPmC6pdn0FvkLnykBC-42" value="&amp;lt;&amp;lt;create&amp;gt;&amp;gt;" style="endArrow=open;endSize=12;dashed=1;html=1;rounded=0;startArrow=none;" parent="1" source="rEoPmC6pdn0FvkLnykBC-4" target="rEoPmC6pdn0FvkLnykBC-32" edge="1">
                    <mxGeometry width="160" relative="1" as="geometry">
                        <mxPoint x="710" y="150" as="sourcePoint"/>
                        <mxPoint x="559.9800000000005" y="310" as="targetPoint"/>
                    </mxGeometry>
                </mxCell>
                <mxCell id="rEoPmC6pdn0FvkLnykBC-49" value="&amp;lt;&amp;lt;create&amp;gt;&amp;gt;" style="endArrow=open;endSize=12;dashed=1;html=1;rounded=0;startArrow=none;" parent="1" source="rEoPmC6pdn0FvkLnykBC-4" target="rEoPmC6pdn0FvkLnykBC-36" edge="1">
                    <mxGeometry width="160" relative="1" as="geometry">
                        <mxPoint x="720" y="160" as="sourcePoint"/>
                        <mxPoint x="817.727272727273" y="590" as="targetPoint"/>
                    </mxGeometry>
                </mxCell>
                <mxCell id="rEoPmC6pdn0FvkLnykBC-50" value="&amp;lt;&amp;lt;create&amp;gt;&amp;gt;" style="endArrow=open;endSize=12;dashed=1;html=1;rounded=0;startArrow=none;" parent="1" source="rEoPmC6pdn0FvkLnykBC-4" target="rEoPmC6pdn0FvkLnykBC-38" edge="1">
                    <mxGeometry width="160" relative="1" as="geometry">
                        <mxPoint x="445.8333333333335" y="530" as="sourcePoint"/>
                        <mxPoint x="440.8333333333335" y="590" as="targetPoint"/>
                    </mxGeometry>
                </mxCell>
                <mxCell id="rEoPmC6pdn0FvkLnykBC-52" value="&lt;p style=&quot;margin:0px;margin-top:4px;text-align:center;&quot;&gt;&lt;b&gt;TMDBActor&lt;/b&gt;&lt;/p&gt;&lt;hr size=&quot;1&quot;&gt;&lt;p style=&quot;margin:0px;margin-left:4px;&quot;&gt;+ id: long&lt;/p&gt;&lt;p style=&quot;margin:0px;margin-left:4px;&quot;&gt;+ name: String&lt;/p&gt;" style="verticalAlign=top;align=left;overflow=fill;fontSize=12;fontFamily=Helvetica;html=1;" parent="1" vertex="1">
                    <mxGeometry x="-170" y="555" width="160" height="70" as="geometry"/>
                </mxCell>
                <mxCell id="rEoPmC6pdn0FvkLnykBC-54" value="" style="endArrow=open;html=1;endSize=12;startArrow=diamondThin;startSize=14;startFill=0;edgeStyle=orthogonalEdgeStyle;align=left;verticalAlign=bottom;rounded=0;" parent="1" source="rEoPmC6pdn0FvkLnykBC-38" target="rEoPmC6pdn0FvkLnykBC-52" edge="1">
                    <mxGeometry x="-1" y="3" relative="1" as="geometry">
                        <mxPoint x="310" y="630" as="sourcePoint"/>
                        <mxPoint x="470" y="630" as="targetPoint"/>
                    </mxGeometry>
                </mxCell>
                <mxCell id="rEoPmC6pdn0FvkLnykBC-55" value="&lt;p style=&quot;margin:0px;margin-top:4px;text-align:center;&quot;&gt;&lt;b&gt;TMDBSeries&lt;/b&gt;&lt;/p&gt;&lt;hr size=&quot;1&quot;&gt;&lt;p style=&quot;margin:0px;margin-left:4px;&quot;&gt;+ id: long&lt;/p&gt;&lt;p style=&quot;margin:0px;margin-left:4px;&quot;&gt;+ name: String&lt;/p&gt;" style="verticalAlign=top;align=left;overflow=fill;fontSize=12;fontFamily=Helvetica;html=1;" parent="1" vertex="1">
                    <mxGeometry x="510" y="555" width="160" height="70" as="geometry"/>
                </mxCell>
                <mxCell id="rEoPmC6pdn0FvkLnykBC-56" value="" style="endArrow=open;html=1;endSize=12;startArrow=diamondThin;startSize=14;startFill=0;edgeStyle=orthogonalEdgeStyle;align=left;verticalAlign=bottom;rounded=0;" parent="1" source="rEoPmC6pdn0FvkLnykBC-36" target="rEoPmC6pdn0FvkLnykBC-55" edge="1">
                    <mxGeometry x="-1" y="3" relative="1" as="geometry">
                        <mxPoint x="80" y="600" as="sourcePoint"/>
                        <mxPoint y="600" as="targetPoint"/>
                    </mxGeometry>
                </mxCell>
                <mxCell id="rEoPmC6pdn0FvkLnykBC-57" value="&lt;p style=&quot;margin:0px;margin-top:4px;text-align:center;&quot;&gt;&lt;b&gt;TMDBMovie&lt;/b&gt;&lt;/p&gt;&lt;hr size=&quot;1&quot;&gt;&lt;p style=&quot;margin:0px;margin-left:4px;&quot;&gt;+ id: long&lt;/p&gt;&lt;p style=&quot;margin:0px;margin-left:4px;&quot;&gt;+ title: String&lt;/p&gt;&lt;p style=&quot;margin:0px;margin-left:4px;&quot;&gt;+ release_date: String&lt;/p&gt;" style="verticalAlign=top;align=left;overflow=fill;fontSize=12;fontFamily=Helvetica;html=1;" parent="1" vertex="1">
                    <mxGeometry x="950" y="547.5" width="160" height="85" as="geometry"/>
                </mxCell>
                <mxCell id="rEoPmC6pdn0FvkLnykBC-58" value="" style="endArrow=open;html=1;endSize=12;startArrow=diamondThin;startSize=14;startFill=0;edgeStyle=orthogonalEdgeStyle;align=left;verticalAlign=bottom;rounded=0;" parent="1" source="rEoPmC6pdn0FvkLnykBC-32" target="rEoPmC6pdn0FvkLnykBC-57" edge="1">
                    <mxGeometry x="-1" y="3" relative="1" as="geometry">
                        <mxPoint x="470" y="600" as="sourcePoint"/>
                        <mxPoint x="520" y="600" as="targetPoint"/>
                    </mxGeometry>
                </mxCell>
                <mxCell id="rEoPmC6pdn0FvkLnykBC-59" value="&lt;p style=&quot;margin:0px;margin-top:4px;text-align:center;&quot;&gt;&lt;b&gt;TMDBEntityToMediaMapper&lt;/b&gt;&lt;/p&gt;&lt;hr size=&quot;1&quot;&gt;&lt;p style=&quot;margin:0px;margin-left:4px;&quot;&gt;&lt;span style=&quot;background-color: initial;&quot;&gt;&lt;u&gt;+ tmdbMovieResponseToMediaList(response: TMDBMovieResponse): List&amp;lt;Media&amp;gt;&lt;br&gt;&lt;/u&gt;&lt;/span&gt;&lt;/p&gt;&lt;p style=&quot;margin:0px;margin-left:4px;&quot;&gt;&lt;span style=&quot;background-color: initial;&quot;&gt;&lt;u&gt;+ tmdbSeriesReponseToMediaList(response: TMDBSeriesResponse): List&amp;lt;Media&amp;gt;&lt;/u&gt;&lt;/span&gt;&lt;/p&gt;&lt;p style=&quot;margin:0px;margin-left:4px;&quot;&gt;&lt;span style=&quot;background-color: initial;&quot;&gt;&lt;u&gt;+ tmdbMovieToMedia(tmdbMovie: TMDBMovie): Media&lt;/u&gt;&lt;/span&gt;&lt;/p&gt;&lt;p style=&quot;margin:0px;margin-left:4px;&quot;&gt;&lt;span style=&quot;background-color: initial;&quot;&gt;&lt;u&gt;+ tmdbSeriesToMedia(tmdbSeries: TMDBSeries): Series&lt;/u&gt;&lt;/span&gt;&lt;/p&gt;" style="verticalAlign=top;align=left;overflow=fill;fontSize=12;fontFamily=Helvetica;html=1;" parent="1" vertex="1">
                    <mxGeometry x="630" y="220" width="450" height="100" as="geometry"/>
                </mxCell>
                <mxCell id="rEoPmC6pdn0FvkLnykBC-60" value="&amp;lt;&amp;lt;use&amp;gt;&amp;gt;" style="endArrow=open;endSize=12;dashed=1;html=1;rounded=0;" parent="1" source="rEoPmC6pdn0FvkLnykBC-2" target="rEoPmC6pdn0FvkLnykBC-59" edge="1">
                    <mxGeometry width="160" relative="1" as="geometry">
                        <mxPoint x="809.5348837209303" y="90" as="sourcePoint"/>
                        <mxPoint x="636.5116279069766" y="-30" as="targetPoint"/>
                    </mxGeometry>
                </mxCell>
                <mxCell id="rEoPmC6pdn0FvkLnykBC-61" value="&lt;p style=&quot;margin:0px;margin-top:4px;text-align:center;&quot;&gt;&lt;b&gt;Media&lt;/b&gt;&lt;/p&gt;&lt;hr size=&quot;1&quot;&gt;&lt;p style=&quot;margin:0px;margin-left:4px;&quot;&gt;+ id: long&lt;/p&gt;&lt;p style=&quot;margin:0px;margin-left:4px;&quot;&gt;+ name: String&lt;/p&gt;" style="verticalAlign=top;align=left;overflow=fill;fontSize=12;fontFamily=Helvetica;html=1;" parent="1" vertex="1">
                    <mxGeometry x="770" y="400" width="160" height="60" as="geometry"/>
                </mxCell>
                <mxCell id="ozdnxD9AgIB_wkTYoshB-1" value="&lt;p style=&quot;margin:0px;margin-top:4px;text-align:center;&quot;&gt;&lt;i style=&quot;&quot;&gt;&amp;lt;&amp;lt;enum&amp;gt;&amp;gt;&lt;/i&gt;&lt;/p&gt;&lt;p style=&quot;margin:0px;margin-top:4px;text-align:center;&quot;&gt;&lt;b&gt;MediaType&lt;/b&gt;&lt;/p&gt;&lt;hr size=&quot;1&quot;&gt;&lt;p style=&quot;margin:0px;margin-left:4px;&quot;&gt;MOVIE&lt;/p&gt;&lt;p style=&quot;margin:0px;margin-left:4px;&quot;&gt;SERIES&lt;/p&gt;" style="verticalAlign=top;align=left;overflow=fill;fontSize=12;fontFamily=Helvetica;html=1;" parent="1" vertex="1">
                    <mxGeometry x="1000" y="390" width="160" height="80" as="geometry"/>
                </mxCell>
                <mxCell id="ozdnxD9AgIB_wkTYoshB-2" value="" style="endArrow=open;html=1;endSize=12;startArrow=diamondThin;startSize=14;startFill=0;edgeStyle=orthogonalEdgeStyle;align=left;verticalAlign=bottom;rounded=0;" parent="1" source="rEoPmC6pdn0FvkLnykBC-61" target="ozdnxD9AgIB_wkTYoshB-1" edge="1">
                    <mxGeometry x="-1" y="3" relative="1" as="geometry">
                        <mxPoint x="910" y="600" as="sourcePoint"/>
                        <mxPoint x="970" y="600" as="targetPoint"/>
                    </mxGeometry>
                </mxCell>
                <mxCell id="ozdnxD9AgIB_wkTYoshB-3" value="+ type" style="edgeLabel;html=1;align=center;verticalAlign=middle;resizable=0;points=[];" parent="ozdnxD9AgIB_wkTYoshB-2" vertex="1" connectable="0">
                    <mxGeometry x="-0.745" y="-1" relative="1" as="geometry">
                        <mxPoint x="21" y="-11" as="offset"/>
                    </mxGeometry>
                </mxCell>
                <mxCell id="ozdnxD9AgIB_wkTYoshB-4" value="1" style="edgeLabel;html=1;align=center;verticalAlign=middle;resizable=0;points=[];" parent="ozdnxD9AgIB_wkTYoshB-2" vertex="1" connectable="0">
                    <mxGeometry x="0.6942" y="-2" relative="1" as="geometry">
                        <mxPoint x="3" y="10" as="offset"/>
                    </mxGeometry>
                </mxCell>
                <mxCell id="ozdnxD9AgIB_wkTYoshB-5" value="&amp;lt;&amp;lt;create&amp;gt;&amp;gt;" style="endArrow=open;endSize=12;dashed=1;html=1;rounded=0;" parent="1" source="rEoPmC6pdn0FvkLnykBC-59" target="rEoPmC6pdn0FvkLnykBC-61" edge="1">
                    <mxGeometry width="160" relative="1" as="geometry">
                        <mxPoint x="611.1799999999998" y="-30.480000000000018" as="sourcePoint"/>
                        <mxPoint x="559.98" y="310" as="targetPoint"/>
                    </mxGeometry>
                </mxCell>
                <mxCell id="9vDqrks4aHF_HLDzd1ok-1" value="&lt;p style=&quot;margin:0px;margin-top:4px;text-align:center;&quot;&gt;&lt;b&gt;ActorController&lt;/b&gt;&lt;/p&gt;&lt;hr size=&quot;1&quot;&gt;&lt;p style=&quot;margin:0px;margin-left:4px;&quot;&gt;- actorRepository: ActorRepostory&lt;/p&gt;&lt;p style=&quot;margin:0px;margin-left:4px;&quot;&gt;- mediaRatingRepository: MediaRatingRepository&lt;/p&gt;&lt;hr size=&quot;1&quot;&gt;&lt;p style=&quot;margin:0px;margin-left:4px;&quot;&gt;+ searchActor(searchParam: String): String&lt;/p&gt;&lt;p style=&quot;margin:0px;margin-left:4px;&quot;&gt;+ showActor(id: long): String&lt;/p&gt;&lt;p style=&quot;margin:0px;margin-left:4px;&quot;&gt;&lt;br&gt;&lt;/p&gt;" style="verticalAlign=top;align=left;overflow=fill;fontSize=12;fontFamily=Helvetica;html=1;" parent="1" vertex="1">
                    <mxGeometry x="-390" y="365" width="280" height="90" as="geometry"/>
                </mxCell>
            </root>
        </mxGraphModel>
    </diagram>
    <diagram id="yk-1PKRfNhLmyv7ypwIE" name="Newsletter">
        <mxGraphModel dx="2848" dy="1180" grid="1" gridSize="10" guides="1" tooltips="1" connect="1" arrows="1" fold="1" page="0" pageScale="1" pageWidth="827" pageHeight="1169" math="0" shadow="0">
            <root>
                <mxCell id="0"/>
                <mxCell id="1" parent="0"/>
                <mxCell id="V4dkTs44QV9ceOMCdsoD-1" value="&lt;p style=&quot;margin:0px;margin-top:4px;text-align:center;&quot;&gt;&lt;i style=&quot;&quot;&gt;&amp;lt;&amp;lt;Entity&amp;gt;&amp;gt;&lt;/i&gt;&lt;/p&gt;&lt;p style=&quot;margin:0px;margin-top:4px;text-align:center;&quot;&gt;&lt;b&gt;NewsletterSubscriber&lt;/b&gt;&lt;/p&gt;&lt;hr size=&quot;1&quot;&gt;&lt;p style=&quot;margin:0px;margin-left:4px;&quot;&gt;- id: long&lt;/p&gt;&lt;p style=&quot;margin:0px;margin-left:4px;&quot;&gt;- email: String&lt;/p&gt;&lt;p style=&quot;margin:0px;margin-left:4px;&quot;&gt;- subscribedAt: Date&lt;/p&gt;&lt;hr size=&quot;1&quot;&gt;&lt;p style=&quot;margin:0px;margin-left:4px;&quot;&gt;+ getEmail(): String&lt;/p&gt;&lt;p style=&quot;margin:0px;margin-left:4px;&quot;&gt;+ setEmail(email: String)&lt;/p&gt;&lt;p style=&quot;margin:0px;margin-left:4px;&quot;&gt;+ getSubscribedAt(): Date&lt;/p&gt;" style="verticalAlign=top;align=left;overflow=fill;fontSize=12;fontFamily=Helvetica;html=1;" vertex="1" parent="1">
                    <mxGeometry x="120" y="360" width="160" height="160" as="geometry"/>
                </mxCell>
                <mxCell id="V4dkTs44QV9ceOMCdsoD-3" style="edgeStyle=orthogonalEdgeStyle;rounded=0;orthogonalLoop=1;jettySize=auto;html=1;startArrow=none;startFill=0;endArrow=none;endFill=0;" edge="1" parent="1" source="V4dkTs44QV9ceOMCdsoD-2" target="V4dkTs44QV9ceOMCdsoD-1">
                    <mxGeometry relative="1" as="geometry"/>
                </mxCell>
                <mxCell id="V4dkTs44QV9ceOMCdsoD-2" value="&lt;p style=&quot;margin:0px;margin-top:4px;text-align:center;&quot;&gt;&lt;b&gt;NewsletterController&lt;/b&gt;&lt;/p&gt;&lt;hr size=&quot;1&quot;&gt;&lt;p style=&quot;margin:0px;margin-left:4px;&quot;&gt;- newsletterSubscriberRepository: NewsletterSubscriberRepository&lt;/p&gt;&lt;hr size=&quot;1&quot;&gt;&lt;p style=&quot;margin:0px;margin-left:4px;&quot;&gt;+ subscribeToNewsletter(subscriber: NewsletterSubscriber, result: BindingResult, model: Model): String&lt;/p&gt;" style="verticalAlign=top;align=left;overflow=fill;fontSize=12;fontFamily=Helvetica;html=1;" vertex="1" parent="1">
                    <mxGeometry x="-560" y="400" width="560" height="80" as="geometry"/>
                </mxCell>
                <mxCell id="V4dkTs44QV9ceOMCdsoD-4" value="&lt;p style=&quot;margin:0px;margin-top:4px;text-align:center;&quot;&gt;&lt;b&gt;NewsletterSubscriberRepository&lt;/b&gt;&lt;/p&gt;&lt;hr size=&quot;1&quot;&gt;&lt;p style=&quot;margin:0px;margin-left:4px;&quot;&gt;+ findByEmail(email: String): List&amp;lt;NewsletterSubscriber&amp;gt;´&lt;/p&gt;&lt;p style=&quot;margin:0px;margin-left:4px;&quot;&gt;+ save(subscriber: NewsletterSubscriber)&lt;/p&gt;" style="verticalAlign=top;align=left;overflow=fill;fontSize=12;fontFamily=Helvetica;html=1;" vertex="1" parent="1">
                    <mxGeometry x="40" y="190" width="320" height="70" as="geometry"/>
                </mxCell>
                <mxCell id="V4dkTs44QV9ceOMCdsoD-5" value="&amp;lt;&amp;lt;use&amp;gt;&amp;gt;" style="endArrow=open;endSize=12;dashed=1;html=1;rounded=0;" edge="1" parent="1" source="V4dkTs44QV9ceOMCdsoD-2" target="V4dkTs44QV9ceOMCdsoD-4">
                    <mxGeometry width="160" relative="1" as="geometry">
                        <mxPoint x="120" y="410" as="sourcePoint"/>
                        <mxPoint x="280" y="410" as="targetPoint"/>
                    </mxGeometry>
                </mxCell>
                <mxCell id="V4dkTs44QV9ceOMCdsoD-7" value="&amp;lt;&amp;lt;reinstantiate&amp;gt;&amp;gt;" style="endArrow=open;endSize=12;dashed=1;html=1;rounded=0;" edge="1" parent="1" source="V4dkTs44QV9ceOMCdsoD-4" target="V4dkTs44QV9ceOMCdsoD-1">
                    <mxGeometry width="160" relative="1" as="geometry">
                        <mxPoint x="-184.66666666666652" y="410" as="sourcePoint"/>
                        <mxPoint x="114.00000000000045" y="270" as="targetPoint"/>
                    </mxGeometry>
                </mxCell>
                <mxCell id="2HwVXDs4HSFOdsAi7Tdd-5" style="edgeStyle=orthogonalEdgeStyle;rounded=0;orthogonalLoop=1;jettySize=auto;html=1;startArrow=none;startFill=0;endArrow=none;endFill=0;" edge="1" parent="1" source="V4dkTs44QV9ceOMCdsoD-8" target="V4dkTs44QV9ceOMCdsoD-1">
                    <mxGeometry relative="1" as="geometry"/>
                </mxCell>
                <mxCell id="V4dkTs44QV9ceOMCdsoD-8" value="&lt;p style=&quot;margin:0px;margin-top:4px;text-align:center;&quot;&gt;&lt;b&gt;NewsletterSender&lt;/b&gt;&lt;/p&gt;&lt;hr size=&quot;1&quot;&gt;&lt;p style=&quot;margin:0px;margin-left:4px;&quot;&gt;- newsletterSubscriberRepository: NewsletterSubscriberRepository&lt;br&gt;&lt;/p&gt;&lt;p style=&quot;margin:0px;margin-left:4px;&quot;&gt;- emailSender: MailSender&lt;/p&gt;&lt;p style=&quot;margin:0px;margin-left:4px;&quot;&gt;- tmdbMovieApi: TMDBMovieApi&lt;/p&gt;&lt;hr size=&quot;1&quot;&gt;&lt;p style=&quot;margin:0px;margin-left:4px;&quot;&gt;+ method(): Type&lt;/p&gt;" style="verticalAlign=top;align=left;overflow=fill;fontSize=12;fontFamily=Helvetica;html=1;" vertex="1" parent="1">
                    <mxGeometry x="400" y="385" width="380" height="110" as="geometry"/>
                </mxCell>
                <mxCell id="2HwVXDs4HSFOdsAi7Tdd-1" value="&lt;p style=&quot;margin:0px;margin-top:4px;text-align:center;&quot;&gt;&lt;b&gt;TMDBMovieApi&lt;/b&gt;&lt;/p&gt;&lt;hr size=&quot;1&quot;&gt;&lt;p style=&quot;margin:0px;margin-left:4px;&quot;&gt;+ getUpcoming(): List&amp;lt;TMDBMovie&amp;gt;&lt;/p&gt;" style="verticalAlign=top;align=left;overflow=fill;fontSize=12;fontFamily=Helvetica;html=1;" vertex="1" parent="1">
                    <mxGeometry x="367.5" y="560" width="205" height="50" as="geometry"/>
                </mxCell>
                <mxCell id="2HwVXDs4HSFOdsAi7Tdd-3" value="&amp;lt;&amp;lt;use&amp;gt;&amp;gt;" style="endArrow=open;endSize=12;dashed=1;html=1;rounded=0;" edge="1" parent="1" source="V4dkTs44QV9ceOMCdsoD-8" target="V4dkTs44QV9ceOMCdsoD-4">
                    <mxGeometry width="160" relative="1" as="geometry">
                        <mxPoint x="-180.6976744186045" y="410" as="sourcePoint"/>
                        <mxPoint x="131.8604651162791" y="270" as="targetPoint"/>
                    </mxGeometry>
                </mxCell>
                <mxCell id="2HwVXDs4HSFOdsAi7Tdd-4" value="&amp;lt;&amp;lt;use&amp;gt;&amp;gt;" style="endArrow=open;endSize=12;dashed=1;html=1;rounded=0;" edge="1" parent="1" source="V4dkTs44QV9ceOMCdsoD-8" target="2HwVXDs4HSFOdsAi7Tdd-1">
                    <mxGeometry width="160" relative="1" as="geometry">
                        <mxPoint x="-170.6976744186045" y="420" as="sourcePoint"/>
                        <mxPoint x="141.8604651162791" y="280" as="targetPoint"/>
                    </mxGeometry>
                </mxCell>
                <mxCell id="2HwVXDs4HSFOdsAi7Tdd-6" value="&amp;lt;&amp;lt;use&amp;gt;&amp;gt;" style="endArrow=open;endSize=12;dashed=1;html=1;rounded=0;" edge="1" parent="1" source="V4dkTs44QV9ceOMCdsoD-8" target="V4dkTs44QV9ceOMCdsoD-1">
                    <mxGeometry width="160" relative="1" as="geometry">
                        <mxPoint x="500.23255813953483" y="395" as="sourcePoint"/>
                        <mxPoint x="273.4883720930234" y="270" as="targetPoint"/>
                    </mxGeometry>
                </mxCell>
                <mxCell id="2HwVXDs4HSFOdsAi7Tdd-7" value="&amp;lt;&amp;lt;create&amp;gt;&amp;gt;" style="endArrow=open;endSize=12;dashed=1;html=1;rounded=0;" edge="1" parent="1" source="V4dkTs44QV9ceOMCdsoD-2" target="V4dkTs44QV9ceOMCdsoD-1">
                    <mxGeometry width="160" relative="1" as="geometry">
                        <mxPoint x="410" y="450" as="sourcePoint"/>
                        <mxPoint x="290" y="450" as="targetPoint"/>
                    </mxGeometry>
                </mxCell>
            </root>
        </mxGraphModel>
    </diagram>
    <diagram id="5MoOSN3c55NPJaUYny5N" name="AttributeEncryptor">
        <mxGraphModel dx="2048" dy="1180" grid="1" gridSize="10" guides="1" tooltips="1" connect="1" arrows="1" fold="1" page="0" pageScale="1" pageWidth="827" pageHeight="1169" math="0" shadow="0">
            <root>
                <mxCell id="0"/>
                <mxCell id="1" parent="0"/>
                <mxCell id="0STGezkkgsbb8gyWOOnO-1" value="&lt;p style=&quot;margin:0px;margin-top:4px;text-align:center;&quot;&gt;&lt;i&gt;&amp;lt;&amp;lt;Entity&amp;gt;&amp;gt;&lt;/i&gt;&lt;/p&gt;&lt;p style=&quot;margin:0px;margin-top:4px;text-align:center;&quot;&gt;&lt;b&gt;User&lt;/b&gt;&lt;/p&gt;" style="verticalAlign=top;align=left;overflow=fill;fontSize=12;fontFamily=Helvetica;html=1;" vertex="1" parent="1">
                    <mxGeometry x="120" y="460" width="160" height="40" as="geometry"/>
                </mxCell>
                <mxCell id="0STGezkkgsbb8gyWOOnO-2" value="&lt;p style=&quot;margin:0px;margin-top:4px;text-align:center;&quot;&gt;&lt;b&gt;AttributeEncryptor&lt;/b&gt;&lt;/p&gt;&lt;hr size=&quot;1&quot;&gt;&lt;p style=&quot;margin:0px;margin-left:4px;&quot;&gt;- key: Key&lt;/p&gt;&lt;p style=&quot;margin:0px;margin-left:4px;&quot;&gt;- cipher: Cipher&lt;/p&gt;&lt;hr size=&quot;1&quot;&gt;&lt;p style=&quot;margin:0px;margin-left:4px;&quot;&gt;+ convertToDatabaseColumn(attribute: String): String&lt;/p&gt;&lt;p style=&quot;margin:0px;margin-left:4px;&quot;&gt;+ convertToEntityAttribute(dbData: String): String&lt;/p&gt;" style="verticalAlign=top;align=left;overflow=fill;fontSize=12;fontFamily=Helvetica;html=1;" vertex="1" parent="1">
                    <mxGeometry x="55" y="290" width="290" height="110" as="geometry"/>
                </mxCell>
                <mxCell id="0STGezkkgsbb8gyWOOnO-3" value="Use" style="endArrow=open;endSize=12;dashed=1;html=1;rounded=0;" edge="1" parent="1" source="0STGezkkgsbb8gyWOOnO-1" target="0STGezkkgsbb8gyWOOnO-2">
                    <mxGeometry width="160" relative="1" as="geometry">
                        <mxPoint x="120" y="500" as="sourcePoint"/>
                        <mxPoint x="280" y="500" as="targetPoint"/>
                    </mxGeometry>
                </mxCell>
            </root>
        </mxGraphModel>
    </diagram>
    <diagram id="k8ymgOgyAOfzIkh0QHVH" name="Media, Actor Controllers">
        <mxGraphModel dx="1081" dy="512" grid="1" gridSize="10" guides="1" tooltips="1" connect="1" arrows="1" fold="1" page="0" pageScale="1" pageWidth="827" pageHeight="1169" math="0" shadow="0">
            <root>
                <mxCell id="0"/>
                <mxCell id="1" parent="0"/>
                <mxCell id="t7S81OO3ixzG0MWd3rcE-1" value="&lt;p style=&quot;margin:0px;margin-top:4px;text-align:center;&quot;&gt;&lt;b&gt;MediaController&lt;/b&gt;&lt;/p&gt;&lt;hr size=&quot;1&quot;&gt;&lt;p style=&quot;margin:0px;margin-left:4px;&quot;&gt;- mediaEntityRepository: MediaRepository&lt;/p&gt;&lt;p style=&quot;margin:0px;margin-left:4px;&quot;&gt;- mediaRatingRepository: MediaRatingRepository&lt;/p&gt;&lt;hr size=&quot;1&quot;&gt;&lt;p style=&quot;margin:0px;margin-left:4px;&quot;&gt;+ searchMedia(searchTerm: String): String&lt;/p&gt;&lt;p style=&quot;margin:0px;margin-left:4px;&quot;&gt;+ showMedia(id: long): String&lt;/p&gt;&lt;p style=&quot;margin:0px;margin-left:4px;&quot;&gt;+ validateAndStoreReview(id: long, review: Review): String&lt;/p&gt;&lt;p style=&quot;margin:0px;margin-left:4px;&quot;&gt;+ deleteReview(mediaId: long, id: long): String&lt;/p&gt;&lt;p style=&quot;margin:0px;margin-left:4px;&quot;&gt;+ editReview(id: long): String&lt;/p&gt;&lt;p style=&quot;margin:0px;margin-left:4px;&quot;&gt;+ processEditReview(id: long, review: Review): String&lt;/p&gt;" style="verticalAlign=top;align=left;overflow=fill;fontSize=12;fontFamily=Helvetica;html=1;" parent="1" vertex="1">
                    <mxGeometry x="140" y="370" width="330" height="170" as="geometry"/>
                </mxCell>
                <mxCell id="t7S81OO3ixzG0MWd3rcE-3" value="&lt;p style=&quot;margin:0px;margin-top:4px;text-align:center;&quot;&gt;&lt;b&gt;ActorController&lt;/b&gt;&lt;/p&gt;&lt;hr size=&quot;1&quot;&gt;&lt;p style=&quot;margin:0px;margin-left:4px;&quot;&gt;- actorRepository: ActorRepository&lt;/p&gt;&lt;p style=&quot;margin:0px;margin-left:4px;&quot;&gt;- mediaRatingRepository: MediaRatingRepository&lt;/p&gt;&lt;p style=&quot;margin:0px;margin-left:4px;&quot;&gt;- tmdbActorApi: TMDBActorApi&lt;/p&gt;&lt;hr size=&quot;1&quot;&gt;&lt;p style=&quot;margin:0px;margin-left:4px;&quot;&gt;+ searchActor(searchTermRaw: String): String&lt;/p&gt;&lt;p style=&quot;margin:0px;margin-left:4px;&quot;&gt;+ showActor(id: long): String&lt;/p&gt;" style="verticalAlign=top;align=left;overflow=fill;fontSize=12;fontFamily=Helvetica;html=1;" parent="1" vertex="1">
                    <mxGeometry x="-260" y="360" width="280" height="120" as="geometry"/>
                </mxCell>
                <mxCell id="t7S81OO3ixzG0MWd3rcE-4" value="&lt;p style=&quot;margin:0px;margin-top:4px;text-align:center;&quot;&gt;&lt;b&gt;ActorRepository&lt;/b&gt;&lt;/p&gt;&lt;hr size=&quot;1&quot;&gt;&lt;p style=&quot;margin:0px;margin-left:4px;&quot;&gt;- actorApi: TMDBActorApi&lt;/p&gt;&lt;hr size=&quot;1&quot;&gt;&lt;p style=&quot;margin:0px;margin-left:4px;&quot;&gt;+ findByName(name: String): List&amp;lt;Actor&amp;gt;&lt;/p&gt;&lt;p style=&quot;margin:0px;margin-left:4px;&quot;&gt;+ findById(id: long): Optional&amp;lt;Actor&amp;gt;&lt;/p&gt;" style="verticalAlign=top;align=left;overflow=fill;fontSize=12;fontFamily=Helvetica;html=1;" parent="1" vertex="1">
                    <mxGeometry x="-520" y="220" width="160" height="90" as="geometry"/>
                </mxCell>
                <mxCell id="t7S81OO3ixzG0MWd3rcE-5" value="&lt;p style=&quot;margin:0px;margin-top:4px;text-align:center;&quot;&gt;&lt;b&gt;MediaRepository&lt;/b&gt;&lt;/p&gt;&lt;hr size=&quot;1&quot;&gt;&lt;p style=&quot;margin: 0px 0px 0px 4px;&quot;&gt;&lt;span style=&quot;background-color: initial;&quot;&gt;+ findByNameContaining(&lt;/span&gt;&lt;/p&gt;&lt;p style=&quot;margin: 0px 0px 0px 4px;&quot;&gt;&lt;span style=&quot;background-color: initial;&quot;&gt;&lt;span style=&quot;white-space: pre;&quot;&gt;&#9;&lt;/span&gt;String nameFragment&lt;/span&gt;&lt;/p&gt;&lt;p style=&quot;margin: 0px 0px 0px 4px;&quot;&gt;&lt;span style=&quot;background-color: initial;&quot;&gt;): List&amp;lt;Media&amp;gt;&lt;/span&gt;&lt;br&gt;&lt;/p&gt;&lt;p style=&quot;margin: 0px 0px 0px 4px;&quot;&gt;+ findById(Long id): Optional&amp;lt;Media&amp;gt;&lt;/p&gt;" style="verticalAlign=top;align=left;overflow=fill;fontSize=12;fontFamily=Helvetica;html=1;" parent="1" vertex="1">
                    <mxGeometry x="140" y="160" width="220" height="100" as="geometry"/>
                </mxCell>
                <mxCell id="t7S81OO3ixzG0MWd3rcE-6" value="&lt;p style=&quot;margin:0px;margin-top:4px;text-align:center;&quot;&gt;&lt;b&gt;MediaRatingRepository&lt;/b&gt;&lt;/p&gt;&lt;hr size=&quot;1&quot;&gt;&lt;p style=&quot;margin:0px;margin-left:4px;&quot;&gt;&lt;/p&gt;&lt;p style=&quot;margin:0px;margin-left:4px;&quot;&gt;+ getByMediaId(id: Long): List&amp;lt;MediaRating&amp;gt;&lt;/p&gt;&lt;p style=&quot;margin:0px;margin-left:4px;&quot;&gt;+ getAverageRatingByMediaId(mediaId: Long): Float&lt;/p&gt;&lt;p style=&quot;margin:0px;margin-left:4px;&quot;&gt;+ getByUserNameAndMeidaId(userName: String, mediaId: long): MediaRating&lt;/p&gt;&lt;p style=&quot;margin:0px;margin-left:4px;&quot;&gt;+ updateReviewTextAndRatingByUsernameAndMediaId(&lt;/p&gt;&lt;p style=&quot;margin:0px;margin-left:4px;&quot;&gt;&lt;span style=&quot;white-space: pre;&quot;&gt;&#9;&lt;/span&gt;reviewText: String,&lt;br&gt;&lt;/p&gt;&lt;p style=&quot;margin:0px;margin-left:4px;&quot;&gt;&lt;span style=&quot;white-space: pre;&quot;&gt;&#9;&lt;/span&gt;rating: int,&lt;br&gt;&lt;/p&gt;&lt;p style=&quot;margin:0px;margin-left:4px;&quot;&gt;&lt;span style=&quot;white-space: pre;&quot;&gt;&#9;&lt;/span&gt;userName: String,&lt;br&gt;&lt;/p&gt;&lt;p style=&quot;margin:0px;margin-left:4px;&quot;&gt;&lt;span style=&quot;white-space: pre;&quot;&gt;&#9;&lt;/span&gt;mediaId: long)&lt;br&gt;&lt;/p&gt;" style="verticalAlign=top;align=left;overflow=fill;fontSize=12;fontFamily=Helvetica;html=1;" parent="1" vertex="1">
                    <mxGeometry x="-335" y="110" width="430" height="150" as="geometry"/>
                </mxCell>
                <mxCell id="t7S81OO3ixzG0MWd3rcE-7" value="&lt;p style=&quot;margin:0px;margin-top:4px;text-align:center;&quot;&gt;&lt;b&gt;Actor&lt;/b&gt;&lt;/p&gt;&lt;hr size=&quot;1&quot;&gt;&lt;p style=&quot;margin:0px;margin-left:4px;&quot;&gt;- id: long&lt;/p&gt;&lt;p style=&quot;margin:0px;margin-left:4px;&quot;&gt;- name: String&lt;/p&gt;&lt;hr size=&quot;1&quot;&gt;&lt;p style=&quot;margin:0px;margin-left:4px;&quot;&gt;+ getId(): long&lt;/p&gt;&lt;p style=&quot;margin:0px;margin-left:4px;&quot;&gt;+ setId(id: long)&lt;/p&gt;&lt;p style=&quot;margin:0px;margin-left:4px;&quot;&gt;+ getName(): String&lt;/p&gt;&lt;p style=&quot;margin:0px;margin-left:4px;&quot;&gt;+ setName(name: String)&lt;/p&gt;" style="verticalAlign=top;align=left;overflow=fill;fontSize=12;fontFamily=Helvetica;html=1;" parent="1" vertex="1">
                    <mxGeometry x="-520" y="50" width="160" height="140" as="geometry"/>
                </mxCell>
                <mxCell id="rAXB5cWk49nw8iNHJnUp-1" value="&lt;p style=&quot;margin:0px;margin-top:4px;text-align:center;&quot;&gt;&lt;b&gt;TMDBActorApi&lt;/b&gt;&lt;/p&gt;&lt;hr size=&quot;1&quot;&gt;&lt;p style=&quot;margin:0px;margin-left:4px;&quot;&gt;+ getMovieCredits(actorId: long): List&amp;lt;TMDBMovieCredit&amp;gt;&lt;/p&gt;" style="verticalAlign=top;align=left;overflow=fill;fontSize=12;fontFamily=Helvetica;html=1;" parent="1" vertex="1">
                    <mxGeometry x="-700" y="385" width="320" height="60" as="geometry"/>
                </mxCell>
                <mxCell id="rAXB5cWk49nw8iNHJnUp-2" value="&amp;lt;&amp;lt;use&amp;gt;&amp;gt;" style="endArrow=open;endSize=12;dashed=1;html=1;rounded=0;" parent="1" source="t7S81OO3ixzG0MWd3rcE-3" target="rAXB5cWk49nw8iNHJnUp-1" edge="1">
                    <mxGeometry width="160" relative="1" as="geometry">
                        <mxPoint x="120" y="400" as="sourcePoint"/>
                        <mxPoint x="280" y="400" as="targetPoint"/>
                    </mxGeometry>
                </mxCell>
                <mxCell id="rAXB5cWk49nw8iNHJnUp-4" value="&amp;lt;&amp;lt;use&amp;gt;&amp;gt;" style="endArrow=open;endSize=12;dashed=1;html=1;rounded=0;" parent="1" source="t7S81OO3ixzG0MWd3rcE-3" target="t7S81OO3ixzG0MWd3rcE-6" edge="1">
                    <mxGeometry width="160" relative="1" as="geometry">
                        <mxPoint x="-240" y="438.33333333333326" as="sourcePoint"/>
                        <mxPoint x="-360" y="436.9047619047619" as="targetPoint"/>
                    </mxGeometry>
                </mxCell>
                <mxCell id="rAXB5cWk49nw8iNHJnUp-5" value="&amp;lt;&amp;lt;use&amp;gt;&amp;gt;" style="endArrow=open;endSize=12;dashed=1;html=1;rounded=0;" parent="1" source="t7S81OO3ixzG0MWd3rcE-3" target="t7S81OO3ixzG0MWd3rcE-4" edge="1">
                    <mxGeometry width="160" relative="1" as="geometry">
                        <mxPoint x="-230" y="448.33333333333326" as="sourcePoint"/>
                        <mxPoint x="-350" y="446.9047619047619" as="targetPoint"/>
                    </mxGeometry>
                </mxCell>
                <mxCell id="rAXB5cWk49nw8iNHJnUp-6" value="&lt;p style=&quot;margin:0px;margin-top:4px;text-align:center;&quot;&gt;&lt;b&gt;ActorMovie&lt;/b&gt;&lt;/p&gt;&lt;hr size=&quot;1&quot;&gt;&lt;p style=&quot;margin:0px;margin-left:4px;&quot;&gt;+ id: long&lt;/p&gt;&lt;p style=&quot;margin:0px;margin-left:4px;&quot;&gt;+ character: String&lt;/p&gt;&lt;p style=&quot;margin:0px;margin-left:4px;&quot;&gt;+ title: String&lt;/p&gt;&lt;p style=&quot;margin:0px;margin-left:4px;&quot;&gt;+ avgRating: Float&lt;/p&gt;" style="verticalAlign=top;align=left;overflow=fill;fontSize=12;fontFamily=Helvetica;html=1;" parent="1" vertex="1">
                    <mxGeometry x="-540" y="490" width="160" height="100" as="geometry"/>
                </mxCell>
                <mxCell id="rAXB5cWk49nw8iNHJnUp-7" value="&amp;lt;&amp;lt;create&amp;gt;&amp;gt;" style="endArrow=open;endSize=12;dashed=1;html=1;rounded=0;" parent="1" source="t7S81OO3ixzG0MWd3rcE-3" target="rAXB5cWk49nw8iNHJnUp-6" edge="1">
                    <mxGeometry width="160" relative="1" as="geometry">
                        <mxPoint x="-250" y="428.33333333333326" as="sourcePoint"/>
                        <mxPoint x="-370" y="426.9047619047619" as="targetPoint"/>
                    </mxGeometry>
                </mxCell>
                <mxCell id="rAXB5cWk49nw8iNHJnUp-10" value="&lt;p style=&quot;margin:0px;margin-top:4px;text-align:center;&quot;&gt;&lt;b&gt;ActorSearchResult&lt;/b&gt;&lt;/p&gt;&lt;hr size=&quot;1&quot;&gt;&lt;p style=&quot;margin:0px;margin-left:4px;&quot;&gt;+ name: String&lt;/p&gt;&lt;p style=&quot;margin:0px;margin-left:4px;&quot;&gt;+ id: long&lt;/p&gt;" style="verticalAlign=top;align=left;overflow=fill;fontSize=12;fontFamily=Helvetica;html=1;" parent="1" vertex="1">
                    <mxGeometry x="-340" y="537.5" width="160" height="65" as="geometry"/>
                </mxCell>
                <mxCell id="rAXB5cWk49nw8iNHJnUp-11" value="&amp;lt;&amp;lt;create&amp;gt;&amp;gt;" style="endArrow=open;endSize=12;dashed=1;html=1;rounded=0;" parent="1" source="t7S81OO3ixzG0MWd3rcE-3" target="rAXB5cWk49nw8iNHJnUp-10" edge="1">
                    <mxGeometry width="160" relative="1" as="geometry">
                        <mxPoint x="-250" y="479.41176470588243" as="sourcePoint"/>
                        <mxPoint x="-370" y="521.7647058823532" as="targetPoint"/>
                    </mxGeometry>
                </mxCell>
                <mxCell id="rAXB5cWk49nw8iNHJnUp-12" value="&lt;p style=&quot;margin:0px;margin-top:4px;text-align:center;&quot;&gt;&lt;b&gt;TMDBActorMapper&lt;/b&gt;&lt;/p&gt;&lt;hr size=&quot;1&quot;&gt;&lt;p style=&quot;margin:0px;margin-left:4px;&quot;&gt;+ tmdbActorsToActor(&lt;/p&gt;&lt;p style=&quot;margin:0px;margin-left:4px;&quot;&gt;&lt;span style=&quot;white-space: pre;&quot;&gt;&#9;&lt;/span&gt;tmdbActors: TMDBActor[]&lt;/p&gt;&lt;p style=&quot;margin:0px;margin-left:4px;&quot;&gt;): List&amp;lt;Actor&amp;gt;&lt;/p&gt;&lt;p style=&quot;margin:0px;margin-left:4px;&quot;&gt;+ tmdbActorToActor(&lt;/p&gt;&lt;p style=&quot;margin:0px;margin-left:4px;&quot;&gt;&lt;span style=&quot;white-space: pre;&quot;&gt;&#9;&lt;/span&gt;tmdbActor: TMDBActor&lt;/p&gt;&lt;p style=&quot;margin:0px;margin-left:4px;&quot;&gt;): Actor&lt;br&gt;&lt;/p&gt;" style="verticalAlign=top;align=left;overflow=fill;fontSize=12;fontFamily=Helvetica;html=1;" parent="1" vertex="1">
                    <mxGeometry x="-760" y="205" width="160" height="120" as="geometry"/>
                </mxCell>
                <mxCell id="rAXB5cWk49nw8iNHJnUp-13" value="&amp;lt;&amp;lt;use&amp;gt;&amp;gt;" style="endArrow=open;endSize=12;dashed=1;html=1;rounded=0;" parent="1" source="t7S81OO3ixzG0MWd3rcE-4" target="rAXB5cWk49nw8iNHJnUp-1" edge="1">
                    <mxGeometry width="160" relative="1" as="geometry">
                        <mxPoint x="-241.61290322580635" y="370" as="sourcePoint"/>
                        <mxPoint x="-370" y="311.47058823529414" as="targetPoint"/>
                    </mxGeometry>
                </mxCell>
                <mxCell id="rAXB5cWk49nw8iNHJnUp-14" value="&amp;lt;&amp;lt;use&amp;gt;&amp;gt;" style="endArrow=open;endSize=12;dashed=1;html=1;rounded=0;" parent="1" source="t7S81OO3ixzG0MWd3rcE-4" target="rAXB5cWk49nw8iNHJnUp-12" edge="1">
                    <mxGeometry width="160" relative="1" as="geometry">
                        <mxPoint x="-474" y="320" as="sourcePoint"/>
                        <mxPoint x="-514" y="395" as="targetPoint"/>
                    </mxGeometry>
                </mxCell>
                <mxCell id="rAXB5cWk49nw8iNHJnUp-15" value="&amp;lt;&amp;lt;create&amp;gt;&amp;gt;" style="endArrow=open;endSize=12;dashed=1;html=1;rounded=0;" parent="1" source="rAXB5cWk49nw8iNHJnUp-12" target="t7S81OO3ixzG0MWd3rcE-7" edge="1">
                    <mxGeometry width="160" relative="1" as="geometry">
                        <mxPoint x="-510" y="275" as="sourcePoint"/>
                        <mxPoint x="-590" y="275" as="targetPoint"/>
                    </mxGeometry>
                </mxCell>
                <mxCell id="rAXB5cWk49nw8iNHJnUp-16" value="&lt;p style=&quot;margin:0px;margin-top:4px;text-align:center;&quot;&gt;&lt;b&gt;MediaSearchResult&lt;/b&gt;&lt;/p&gt;&lt;hr size=&quot;1&quot;&gt;&lt;p style=&quot;margin:0px;margin-left:4px;&quot;&gt;+ name: String&lt;/p&gt;&lt;p style=&quot;margin:0px;margin-left:4px;&quot;&gt;+ id: long&lt;/p&gt;" style="verticalAlign=top;align=left;overflow=fill;fontSize=12;fontFamily=Helvetica;html=1;" parent="1" vertex="1">
                    <mxGeometry x="140" y="590" width="160" height="65" as="geometry"/>
                </mxCell>
                <mxCell id="rAXB5cWk49nw8iNHJnUp-17" value="&amp;lt;&amp;lt;use&amp;gt;&amp;gt;" style="endArrow=open;endSize=12;dashed=1;html=1;rounded=0;" parent="1" source="t7S81OO3ixzG0MWd3rcE-1" target="t7S81OO3ixzG0MWd3rcE-6" edge="1">
                    <mxGeometry width="160" relative="1" as="geometry">
                        <mxPoint x="-110" y="370" as="sourcePoint"/>
                        <mxPoint x="-110" y="270" as="targetPoint"/>
                    </mxGeometry>
                </mxCell>
                <mxCell id="rAXB5cWk49nw8iNHJnUp-18" value="&amp;lt;&amp;lt;use&amp;gt;&amp;gt;" style="endArrow=open;endSize=12;dashed=1;html=1;rounded=0;" parent="1" source="t7S81OO3ixzG0MWd3rcE-1" target="t7S81OO3ixzG0MWd3rcE-5" edge="1">
                    <mxGeometry width="160" relative="1" as="geometry">
                        <mxPoint x="-100" y="380" as="sourcePoint"/>
                        <mxPoint x="-100" y="280" as="targetPoint"/>
                    </mxGeometry>
                </mxCell>
                <mxCell id="1L_q_XF-qigF2oe8vOc2-1" value="&lt;p style=&quot;margin:0px;margin-top:4px;text-align:center;&quot;&gt;&lt;b&gt;TMDBEntityToMediaMapper&lt;/b&gt;&lt;/p&gt;&lt;hr size=&quot;1&quot;&gt;&lt;p style=&quot;margin:0px;margin-left:4px;&quot;&gt;&lt;span style=&quot;background-color: initial;&quot;&gt;&lt;u&gt;+ tmdbMovieResponseToMediaList(response: TMDBMovieResponse): List&amp;lt;Media&amp;gt;&lt;br&gt;&lt;/u&gt;&lt;/span&gt;&lt;/p&gt;&lt;p style=&quot;margin:0px;margin-left:4px;&quot;&gt;&lt;span style=&quot;background-color: initial;&quot;&gt;&lt;u&gt;+ tmdbSeriesReponseToMediaList(response: TMDBSeriesResponse): List&amp;lt;Media&amp;gt;&lt;/u&gt;&lt;/span&gt;&lt;/p&gt;&lt;p style=&quot;margin:0px;margin-left:4px;&quot;&gt;&lt;span style=&quot;background-color: initial;&quot;&gt;&lt;u&gt;+ tmdbMovieToMedia(tmdbMovie: TMDBMovie): Media&lt;/u&gt;&lt;/span&gt;&lt;/p&gt;&lt;p style=&quot;margin:0px;margin-left:4px;&quot;&gt;&lt;span style=&quot;background-color: initial;&quot;&gt;&lt;u&gt;+ tmdbSeriesToMedia(tmdbSeries: TMDBSeries): Series&lt;/u&gt;&lt;/span&gt;&lt;/p&gt;" style="verticalAlign=top;align=left;overflow=fill;fontSize=12;fontFamily=Helvetica;html=1;" parent="1" vertex="1">
                    <mxGeometry x="160" width="450" height="100" as="geometry"/>
                </mxCell>
                <mxCell id="1L_q_XF-qigF2oe8vOc2-2" value="&lt;p style=&quot;margin:0px;margin-top:4px;text-align:center;&quot;&gt;&lt;b&gt;Media&lt;/b&gt;&lt;/p&gt;&lt;hr size=&quot;1&quot;&gt;&lt;p style=&quot;margin:0px;margin-left:4px;&quot;&gt;+ id: long&lt;/p&gt;&lt;p style=&quot;margin:0px;margin-left:4px;&quot;&gt;+ name: String&lt;/p&gt;" style="verticalAlign=top;align=left;overflow=fill;fontSize=12;fontFamily=Helvetica;html=1;" parent="1" vertex="1">
                    <mxGeometry x="450" y="180" width="160" height="60" as="geometry"/>
                </mxCell>
                <mxCell id="1L_q_XF-qigF2oe8vOc2-3" value="&lt;p style=&quot;margin:0px;margin-top:4px;text-align:center;&quot;&gt;&lt;i style=&quot;&quot;&gt;&amp;lt;&amp;lt;enum&amp;gt;&amp;gt;&lt;/i&gt;&lt;/p&gt;&lt;p style=&quot;margin:0px;margin-top:4px;text-align:center;&quot;&gt;&lt;b&gt;MediaType&lt;/b&gt;&lt;/p&gt;&lt;hr size=&quot;1&quot;&gt;&lt;p style=&quot;margin:0px;margin-left:4px;&quot;&gt;MOVIE&lt;/p&gt;&lt;p style=&quot;margin:0px;margin-left:4px;&quot;&gt;SERIES&lt;/p&gt;" style="verticalAlign=top;align=left;overflow=fill;fontSize=12;fontFamily=Helvetica;html=1;" parent="1" vertex="1">
                    <mxGeometry x="450" y="280" width="160" height="80" as="geometry"/>
                </mxCell>
                <mxCell id="1L_q_XF-qigF2oe8vOc2-4" value="" style="endArrow=open;html=1;endSize=12;startArrow=diamondThin;startSize=14;startFill=0;edgeStyle=orthogonalEdgeStyle;align=left;verticalAlign=bottom;rounded=0;" parent="1" source="1L_q_XF-qigF2oe8vOc2-2" target="1L_q_XF-qigF2oe8vOc2-3" edge="1">
                    <mxGeometry x="-1" y="3" relative="1" as="geometry">
                        <mxPoint x="650" y="575" as="sourcePoint"/>
                        <mxPoint x="710" y="575" as="targetPoint"/>
                    </mxGeometry>
                </mxCell>
                <mxCell id="1L_q_XF-qigF2oe8vOc2-5" value="+ type" style="edgeLabel;html=1;align=center;verticalAlign=middle;resizable=0;points=[];" parent="1L_q_XF-qigF2oe8vOc2-4" vertex="1" connectable="0">
                    <mxGeometry x="-0.745" y="-1" relative="1" as="geometry">
                        <mxPoint x="21" y="12" as="offset"/>
                    </mxGeometry>
                </mxCell>
                <mxCell id="1L_q_XF-qigF2oe8vOc2-6" value="1" style="edgeLabel;html=1;align=center;verticalAlign=middle;resizable=0;points=[];" parent="1L_q_XF-qigF2oe8vOc2-4" vertex="1" connectable="0">
                    <mxGeometry x="0.6942" y="-2" relative="1" as="geometry">
                        <mxPoint x="12" y="1" as="offset"/>
                    </mxGeometry>
                </mxCell>
                <mxCell id="1L_q_XF-qigF2oe8vOc2-7" value="&amp;lt;&amp;lt;create&amp;gt;&amp;gt;" style="endArrow=open;endSize=12;dashed=1;html=1;rounded=0;" parent="1" source="1L_q_XF-qigF2oe8vOc2-1" target="1L_q_XF-qigF2oe8vOc2-2" edge="1">
                    <mxGeometry width="160" relative="1" as="geometry">
                        <mxPoint x="351.17999999999984" y="-55.48000000000002" as="sourcePoint"/>
                        <mxPoint x="299.98" y="285" as="targetPoint"/>
                    </mxGeometry>
                </mxCell>
                <mxCell id="1L_q_XF-qigF2oe8vOc2-8" value="&amp;lt;&amp;lt;use&amp;gt;&amp;gt;" style="endArrow=open;endSize=12;dashed=1;html=1;rounded=0;" parent="1" source="t7S81OO3ixzG0MWd3rcE-5" target="1L_q_XF-qigF2oe8vOc2-1" edge="1">
                    <mxGeometry width="160" relative="1" as="geometry">
                        <mxPoint x="234.5" y="380" as="sourcePoint"/>
                        <mxPoint x="245.5" y="270" as="targetPoint"/>
                    </mxGeometry>
                </mxCell>
                <mxCell id="1L_q_XF-qigF2oe8vOc2-10" value="&amp;lt;&amp;lt;create&amp;gt;&amp;gt;" style="endArrow=open;endSize=12;dashed=1;html=1;rounded=0;" parent="1" source="t7S81OO3ixzG0MWd3rcE-1" target="rAXB5cWk49nw8iNHJnUp-16" edge="1">
                    <mxGeometry width="160" relative="1" as="geometry">
                        <mxPoint x="-166" y="490" as="sourcePoint"/>
                        <mxPoint x="-219.66666666666652" y="547.5" as="targetPoint"/>
                    </mxGeometry>
                </mxCell>
            </root>
        </mxGraphModel>
    </diagram>
</mxfile>